<svg xmlns="http://www.w3.org/2000/svg" xmlns:xlink="http://www.w3.org/1999/xlink" version="1.1" x="0px" y="0px" viewBox="0 0 100 125" style="enable-background:new 0 0 100 100;" xml:space="preserve"><path d="M39.0630684,30.30896c0-1.2937012,1.0491333-2.3422852,2.3422241-2.3422852  c1.2937622,0,2.3422852,1.048584,2.3422852,2.3422852c0,1.2930908-1.0485229,2.3416138-2.3422852,2.3416138  C40.1122017,32.6505737,39.0630684,31.6020508,39.0630684,30.30896z M58.5941963,32.6505737  c1.2937012,0,2.3422241-1.0485229,2.3422241-2.3416138c0-1.2937012-1.0485229-2.3422852-2.3422241-2.3422852  c-1.2931519,0-2.3416748,1.048584-2.3416748,2.3422852C56.2525215,31.6020508,57.3010445,32.6505737,58.5941963,32.6505737z   M45.3257637,44.0527344c0.0473633,0.0004883,0.0947266,0.0009766,0.1420898,0.0009766  c1.9367676,0,3.4580078-0.5830078,4.5319824-1.7226563c1.0739746,1.1396484,2.5947876,1.7226563,4.5324707,1.7226563  c0.046875,0,0.09375-0.0004883,0.1416016-0.0009766c0.828125-0.012207,1.4902344-0.6933594,1.4785156-1.5214844  c-0.0117188-0.8212891-0.6806641-1.4785156-1.5-1.4785156c-0.0068359,0-0.0146484,0-0.0214844,0  c-1.1425781,0.0102539-1.9580078-0.2460938-2.4580078-0.7797852c-0.3567505-0.3812256-0.5241699-0.8656616-0.6049805-1.2802124  L53.70467,36.125061c0.2757568-0.3729248,0.3189087-0.8693237,0.1127319-1.2841797  c-0.2086792-0.4160156-0.6331177-0.6774292-1.0983276-0.6774292h-5.4386597c-0.46521,0-0.8896484,0.2614136-1.0982666,0.6774292  c-0.2062378,0.414856-0.1630859,0.9112549,0.1126709,1.2841797l2.1362915,2.8671875  c-0.0806885,0.4147949-0.2475586,0.899231-0.6048584,1.2807007c-0.4995117,0.5332031-1.3378906,0.7929688-2.4575195,0.7797852  c-0.8095703,0.0024414-1.5097656,0.6503906-1.5214844,1.4785156S44.4971504,44.0405273,45.3257637,44.0527344z   M81.5948029,41.8959961c-0.1425781,0.7138672-0.7685547,1.2084961-1.4697266,1.2084961  c-0.0976563,0-0.1953125-0.0097656-0.2939453-0.0292969l-1.6764526-0.3328857  c-1.5455322,3.3598633-3.7763062,6.4464722-6.6077271,9.0565186l2.6445313,5.7324219  c1.6728516,3.6279297,2.9697266,7.4414063,3.8554688,11.3339844v0.0009766l1.5732422,6.9238281  c0.2373047,1.0419922-0.0087891,2.1210938-0.6767578,2.9580078c-0.27948,0.3501587-0.6260376,0.6212769-1.0020142,0.8375854  c0.2967529,1.5265503,0.4570923,3.1011963,0.4570923,4.7131958v2.25c0,3.5839844-2.9160156,6.5-6.5,6.5h-0.4491577  c-0.2877197,2.2059326-2.1583252,3.9208984-4.4414673,3.9208984H60.466877c-2.2831421,0-4.1537476-1.7149658-4.4414673-3.9208984  H43.9742622c-0.2877197,2.2059326-2.1583252,3.9208984-4.4414673,3.9208984h-6.5410156  c-2.283144,0-4.1537495-1.7149658-4.4414692-3.9208984h-0.449646c-3.5839844,0-6.5-2.9160156-6.5-6.5v-2.25  c0-1.6121216,0.1603394-3.1868896,0.4571533-4.713501c-0.3758545-0.2162476-0.722229-0.4872437-1.0015869-0.8372803  c-0.6674805-0.8369141-0.9145508-1.9150391-0.6767578-2.9589844l1.5742188-6.9267578  c0.8852539-3.8925781,2.1816406-7.7041016,3.8535156-11.3291016l2.6445313-5.734375  c-2.8312378-2.6098633-5.0618286-5.6964722-6.6071167-9.0563965l-1.6760864,0.3327637  c-0.0986328,0.0195313-0.1967773,0.0292969-0.293457,0.0292969c-0.7011719,0-1.328125-0.4946289-1.4697266-1.2084961  c-0.1616211-0.8125,0.3666992-1.6020508,1.1791992-1.7631836l1.137207-0.225769  c-0.7328491-2.213501-1.177063-4.5153809-1.3119507-6.8549194c-0.7098389-0.2332153-1.1539307-0.9584351-1.0044556-1.7098389  c0.1082764-0.5455933,0.5024414-0.9563599,0.9944458-1.1227417c0.7433472-15.1091919,14.182375-27.18927,30.5997944-27.18927  c16.4177818,0,29.8568687,12.079895,30.6002769,27.1890259c0.4901123,0.1668091,0.8856201,0.5776978,0.9949341,1.1229858  c0.1490479,0.7514038-0.295105,1.4766235-1.0049438,1.7098389c-0.1349487,2.3394165-0.5791626,4.6413574-1.3121948,6.8548584  l1.1374512,0.2258301C81.2276154,40.2939453,81.7559357,41.0834961,81.5948029,41.8959961z M23.6894703,39.3178101  l2.7105103-0.538208c-0.4510498-1.4362793-0.7141113-2.9346313-0.7766113-4.4751587l-3.1521606-0.6258545  C22.6486378,35.6028442,23.0547047,37.4953613,23.6894703,39.3178101z M29.4678516,86.9658203  c-0.5991211-1.0947266-1.0795898-2.2617188-1.4282227-3.46875c-0.3297729-1.1419678-0.6144409-2.2860718-0.8583984-3.4316406  h-2.1622925c-0.272583,1.369751-0.4182739,2.784729-0.4182739,4.2333984v2.25c0,1.9296875,1.5703125,3.5,3.5,3.5h0.6027222  c0.1444092-0.5336304,0.3600464-1.0476074,0.6467896-1.5253906C29.6675587,87.9951172,29.711504,87.4121094,29.4678516,86.9658203z   M41.032795,91.6240234c0-0.9560547-0.4365234-1.6416016-0.8027344-2.0478516  c-0.2480469-0.2753906-0.3852539-0.6337891-0.3852539-1.0039063v-8.5068359h-9.5789204  c0.1972046,0.8674316,0.4058228,1.7344971,0.6555786,2.5996094c0.2880859,0.9960938,0.6845703,1.9589844,1.1787128,2.8623047  c0.7602539,1.3916016,0.6933594,3.0878906-0.1777363,4.5400391c-0.2817383,0.4697266-0.4306641,1.0078125-0.4306641,1.5566406  v0.8457031c0,0.8271484,0.6728535,1.5,1.5000019,1.5h6.5410156c0.8271484,0,1.5-0.6728516,1.5-1.5V91.6240234z   M48.4995918,77.0654297V53.9577026c-9.4103394-0.4798584-17.3963032-5.4359741-20.9384785-12.3502808l-2.6773071,0.5315552  c1.5095825,3.0447388,3.6586304,5.822937,6.3696899,8.1349487c0.5117188,0.4360352,0.6704102,1.1586914,0.3891602,1.769043  l-3.1108398,6.7460938c-1.5849609,3.4365234-2.8139648,7.0488281-3.6523438,10.7382813l-1.574707,6.9267578  c-0.046875,0.2050781,0.0405273,0.3525391,0.0966797,0.4228516s0.1811523,0.1884766,0.390625,0.1884766H48.4995918z   M33.7891426,34.3964844c-0.1416016,0.7138672-0.7685547,1.2084961-1.4697266,1.2084961  c-0.0966797,0-0.1948242-0.0097656-0.293457-0.0292969l-3.3424091-0.6636353  c0.1036987,1.1257935,0.3410645,2.2193604,0.6968994,3.2758179l2.6455097-0.5252686  c0.8168945-0.159668,1.6020508,0.3671875,1.7631836,1.1791992c0.1616211,0.8125-0.3666992,1.6020508-1.1791992,1.7631836  l-1.9537373,0.3879395C34.0819283,46.895752,41.4528389,51,49.9995918,51c8.5471191,0,15.918087-4.104248,19.3438683-10.0070801  l-1.9537354-0.3879395c-0.8125-0.1611328-1.3408203-0.9506836-1.1796875-1.7631836  c0.1630859-0.8125,0.9580078-1.3359375,1.7636719-1.1791992l2.6455078,0.5252686  c0.355835-1.0564575,0.5932007-2.1500244,0.6968994-3.2758179l-3.3424072,0.6636353  c-0.0986328,0.0195313-0.1962891,0.0292969-0.2939453,0.0292969c-0.7011719,0-1.3271484-0.4946289-1.4697266-1.2084961  c-0.1611328-0.8125,0.3671875-1.6020508,1.1796875-1.7631836l3.8990479-0.7741699  c-1.0807495-8.7749023-10.2147789-15.6491699-21.2891808-15.6491699c-11.0739746,0-20.2079487,6.8742676-21.2886982,15.6491699  l3.8990498,0.7741699C33.4224434,32.7944336,33.9507637,33.5839844,33.7891426,34.3964844z M57.154377,80.0654297H42.8448067  v7.9755859c0.4489136,0.6085815,0.7618408,1.2921143,0.958374,2.0078125h12.3931885  c0.1965332-0.7157593,0.5093384-1.3991089,0.9580078-2.0078125V80.0654297z M69.7330475,80.0654297H60.154377v8.5068359  c0,0.3701172-0.1367188,0.7285156-0.3847656,1.0039063c-0.3662109,0.40625-0.8027344,1.0917969-0.8027344,2.0478516v0.8457031  c0,0.8271484,0.6728516,1.5,1.5,1.5h6.5410118c0.8271484,0,1.5-0.6728516,1.5-1.5v-0.8457031  c0-0.5478516-0.1494141-1.0869141-0.4306641-1.5566406c-0.8720703-1.4511719-0.9384766-3.1484375-0.1777344-4.5400391  c0.4951172-0.90625,0.8916016-1.8691406,1.1777344-2.8623047C69.3270416,81.7998657,69.5357208,80.9328613,69.7330475,80.0654297z   M75.3985138,84.2988281c0-1.4486694-0.1456909-2.8636475-0.4182739-4.2333984h-2.1621704  c-0.2438965,1.1455688-0.5283813,2.2896729-0.8580322,3.4316406c-0.3476563,1.203125-0.8271484,2.3701172-1.4277344,3.46875  c-0.2441406,0.4472656-0.2001953,1.0292969,0.1171875,1.5576172c0.2865601,0.4784546,0.5020752,0.9923096,0.6465454,1.5253906  h0.602478c1.9296875,0,3.5-1.5703125,3.5-3.5V84.2988281z M75.1156769,42.1389771l-2.6771851-0.5315552  c-3.5424194,6.9144897-11.5288048,11.8706055-20.9393883,12.3502808v23.1077271h24.7089806  c0.2089844,0,0.3339844-0.1181641,0.390625-0.1884766c0.0556641-0.0693359,0.1425781-0.2177734,0.0957031-0.421875  L75.12117,69.5302734c-0.8388672-3.6894531-2.0683594-7.3046875-3.6542969-10.7431641l-3.1103516-6.7431641  c-0.28125-0.6103516-0.1220703-1.3330078,0.3886719-1.769043C71.4566193,47.9622192,73.6059113,45.1837769,75.1156769,42.1389771z   M77.5284576,33.6785889l-3.1521606,0.6258545c-0.0625,1.5404663-0.3256226,3.0388794-0.7766724,4.4751587l2.7103882,0.538147  C76.9449005,37.4952393,77.3510284,35.6027832,77.5284576,33.6785889z M77.6101837,30.6040649  C77.0749054,16.9708862,64.8990021,6.0302734,49.9995918,6.0302734c-14.8989258,0-27.074831,10.9406128-27.6101093,24.5737915  l3.376709,0.6704102c1.3884277-10.1519775,11.7238789-18.0645142,24.2334003-18.0645142s22.8453331,7.9125366,24.2338829,18.0645142  L77.6101837,30.6040649z M67.6709747,57.4404297c1.5917969,1.8037109,1.5400391,4.4736328-0.1210938,6.2089844  c-0.0273438,0.0283203-0.0546875,0.0546875-0.0839844,0.0810547l-4.4619102,3.9921875  c-0.4677734,0.4189453-1.0546875,0.6279297-1.6416016,0.6279297s-1.1738281-0.2089844-1.6425781-0.6289063l-4.4609375-3.9912109  c-0.0292969-0.0263672-0.0566406-0.0527344-0.0830078-0.0800781c-1.6621094-1.7353516-1.7148438-4.4052734-0.1220703-6.2109375  c0.6611328-0.75,1.5449219-1.2451172,2.5556641-1.4326172c1.2939453-0.2451172,2.65625,0.1298828,3.7529297,1.0214844  c1.0947266-0.8916016,2.4638672-1.2617188,3.7558556-1.0214844c0.0009766,0,0.0009766,0,0.0019531,0  C66.128006,56.1962891,67.0108185,56.6914063,67.6709747,57.4404297z M65.4209747,59.4248047  c-0.2695313-0.3056641-0.6132813-0.4238281-0.8535156-0.46875c-0.4335938-0.0810547-0.9335899,0.0791016-1.3447227,0.4257813  l-0.8818359,0.7441406c-0.5410156,0.4550781-1.4160156,0.4550781-1.9570313,0l-0.8818359-0.7431641  c-0.4121094-0.3476563-0.9169922-0.5078125-1.34375-0.4267578c-0.2421875,0.0449219-0.5849609,0.1621094-0.8544922,0.4677734  c-0.5419922,0.6142578-0.5371094,1.515625,0.0048828,2.1152344l4.0537109,3.6269531l4.0527306-3.6269531  C65.9571075,60.9384766,65.9629669,60.0380859,65.4209747,59.4248047z"/><text x="0" y="115" fill="#000000" font-size="5px" font-weight="bold" font-family="'Helvetica Neue', Helvetica, Arial-Unicode, Arial, Sans-serif">Created by Llisole</text><text x="0" y="120" fill="#000000" font-size="5px" font-weight="bold" font-family="'Helvetica Neue', Helvetica, Arial-Unicode, Arial, Sans-serif">from the Noun Project</text></svg>