<svg xmlns="http://www.w3.org/2000/svg" xmlns:xlink="http://www.w3.org/1999/xlink" version="1.1" x="0px" y="0px" viewBox="0 0 100 125" style="enable-background:new 0 0 100 100;" xml:space="preserve"><path d="M54.6455879,32.2387695c-0.5634766-0.6074219-0.5283203-1.5566406,0.0791016-2.1201172  c4.1289063-3.8300781,9.2470703-1.1054688,9.4628868-0.987793c0.7275391,0.3969727,0.9951172,1.3081055,0.5976563,2.0351563  c-0.3964844,0.7260742-1.3076134,0.9907227-2.0283165,0.6015625c-0.1474609-0.0776367-3.4648438-1.7963867-5.9912109,0.550293  c-0.2890625,0.2680664-0.6552734,0.4003906-1.0205078,0.4003906C55.3428535,32.7182617,54.9414864,32.5571289,54.6455879,32.2387695  z M37.2432442,31.7675781c0.1396484-0.074707,3.4594727-1.7988281,5.9907227,0.550293  c0.2890625,0.2680664,0.6547852,0.4003906,1.0200195,0.4003906c0.402832,0,0.8046875-0.1611328,1.1000977-0.4794922  c0.5634766-0.6074219,0.527832-1.5566406-0.0791016-2.1201172c-4.1274414-3.8300781-9.2470703-1.1054688-9.4624023-0.987793  c-0.7246094,0.3955078-0.9897461,1.2998047-0.5981445,2.0263672C35.6060371,31.8823242,36.5117989,32.1552734,37.2432442,31.7675781  z M81.565506,41.9067383c-0.1425781,0.7138672-0.7685547,1.2084961-1.4697266,1.2084961  c-0.0976563,0-0.1953125-0.0097656-0.2939453-0.0292969L78.14711,42.7573853  c-1.5449829,3.3540649-3.7728882,6.4354248-6.6001587,9.0414429l2.6445313,5.7324219  c1.671875,3.6230469,2.96875,7.4365234,3.8554688,11.3339844l1.5742188,6.9238281  c0.2373047,1.0449219-0.0097656,2.1230469-0.6777344,2.9599609c-0.27948,0.3501587-0.6260376,0.6210938-1.0019531,0.8371582  c0.2966919,1.5263672,0.4570313,3.1008301,0.4570313,4.7126465v2.25c0,3.5839844-2.9160156,6.5-6.5,6.5h-0.4491577  c-0.2877197,2.2059326-2.1583252,3.9208984-4.4414673,3.9208984H60.466877c-2.2831421,0-4.1537476-1.7149658-4.4414673-3.9208984  H43.9742622c-0.2877197,2.2059326-2.1583252,3.9208984-4.4414673,3.9208984h-6.5410156  c-2.283144,0-4.1537495-1.7149658-4.4414692-3.9208984h-0.449646c-3.5839844,0-6.5-2.9160156-6.5-6.5v-2.25  c0-1.6122437,0.1603394-3.1871338,0.4572144-4.7138062c-0.3756714-0.2161865-0.7219238-0.4870605-1.0011597-0.8369751  c-0.6674805-0.8369141-0.9145508-1.9150391-0.6767578-2.9589844l1.5742188-6.9257813  c0.8852539-3.8916016,2.1816406-7.7041016,3.8535156-11.3300781l2.644043-5.734375  c-2.8268433-2.6057739-5.0545654-5.6871338-6.5996094-9.0413208l-1.6542969,0.3284302  c-0.0986328,0.0195313-0.1967773,0.0292969-0.293457,0.0292969c-0.7011719,0-1.328125-0.4946289-1.4697266-1.2084961  c-0.1616211-0.8125,0.3666992-1.6020508,1.1791992-1.7631836l1.1137695-0.2211304  c-0.7345581-2.2144775-1.1802979-4.5174561-1.3163452-6.8582764c-0.6936646-0.2428589-1.1241455-0.9596558-0.9766235-1.701355  c0.1074829-0.5415039,0.4959717-0.9497681,0.9828491-1.1185913c0.2633057-5.5145264,2.1826172-10.7573242,5.6377563-15.2559204  l-0.1708984-8.4863281C24.8638477,5.4140625,25.3687305,4.375,26.2349415,3.7202148  c0.8657227-0.6547852,2.0009766-0.8579102,3.0405273-0.5410156l7.9829121,2.4257813  c4.0068359-1.7089844,8.2900391-2.574707,12.7407227-2.574707c4.4511719,0,8.7333984,0.8657227,12.7412109,2.574707  l7.9833946-2.4262695c1.0439453-0.3154297,2.1787109-0.1123047,3.0439453,0.5429688  c0.8652344,0.6557617,1.3681641,1.6953125,1.3466797,2.7807617l-0.1699219,8.4858398  c3.4545898,4.4984741,5.3737793,9.7410278,5.637207,15.2554321c0.4851685,0.1691284,0.8753662,0.5776978,0.9838867,1.1190796  c0.1470947,0.7418823-0.2836304,1.4588013-0.9776001,1.7014771c-0.1360474,2.3407593-0.5817261,4.6437378-1.3162842,6.8580933  l1.1141968,0.2211914C81.1983185,40.3046875,81.7266388,41.0942383,81.565506,41.9067383z M23.6957569,39.3331299  l2.7094727-0.5379639c-0.4525757-1.4365234-0.7175293-2.9350586-0.7814331-4.4759521l-3.1508179-0.6255493  C22.6516285,35.6181641,23.0595875,37.5106201,23.6957569,39.3331299z M29.4678516,86.9658203  c-0.5996094-1.0957031-1.0805664-2.2626953-1.4282227-3.46875c-0.3297729-1.1419678-0.6144409-2.2860718-0.8583984-3.4316406  h-2.1622925c-0.272583,1.369751-0.4182739,2.784729-0.4182739,4.2333984v2.25c0,1.9296875,1.5703125,3.5,3.5,3.5h0.6027222  c0.1444092-0.5336304,0.3600464-1.0476074,0.6467896-1.5253906C29.6675587,87.9951172,29.711504,87.4121094,29.4678516,86.9658203z   M41.032795,91.6240234c0-0.9560547-0.4365234-1.6416016-0.8027344-2.0478516  c-0.2480469-0.2753906-0.3852539-0.6337891-0.3852539-1.0039063v-8.5068359h-9.5791035  c0.1972656,0.8674316,0.4059448,1.7344971,0.6557617,2.5996094c0.2875977,0.9951172,0.684082,1.9580078,1.1787128,2.8623047  c0.7602539,1.3916016,0.6933594,3.0878906-0.1777363,4.5400391c-0.2817383,0.4697266-0.4306641,1.0078125-0.4306641,1.5566406  v0.8457031c0,0.8271484,0.6728535,1.5,1.5000019,1.5h6.5410156c0.8271484,0,1.5-0.6728516,1.5-1.5V91.6240234z   M48.4995918,77.0654297V53.9577026c-9.4034424-0.4794922-17.3842793-5.428894-20.9304218-12.3353271l-2.6773682,0.5316162  c1.5092773,3.0390625,3.6555786,5.8121948,6.3621826,8.1209106c0.5112305,0.4360352,0.6699219,1.1586914,0.3886719,1.769043  l-3.1103516,6.7451172c-1.5849609,3.4375-2.8134766,7.0507813-3.6523438,10.7402344l-1.574707,6.9257813  c-0.046875,0.2041016,0.0405273,0.3515625,0.0966797,0.421875s0.1811523,0.1884766,0.390625,0.1884766H48.4995918z   M33.8062325,34.4145508c-0.1416016,0.7138672-0.7685547,1.2084961-1.4697266,1.2084961  c-0.0966797,0-0.1948242-0.0097656-0.293457-0.0292969l-3.3585835-0.6668091  c0.1049805,1.1261597,0.34375,2.2198486,0.7009277,3.2764893l2.6576557-0.5276489  c0.815918-0.1591797,1.6020508,0.3671875,1.7631836,1.1791992c0.1616211,0.8125-0.3666992,1.6020508-1.1791992,1.7631836  l-1.962038,0.3895264C34.0945015,46.9025269,41.460041,51,49.9995918,51c8.539856,0,15.9054527-4.0974121,19.3350182-9.9921875  l-1.9624634-0.3896484c-0.8125-0.1611328-1.3408203-0.9506836-1.1796875-1.7631836  c0.1630859-0.8129883,0.9589844-1.3354492,1.7636719-1.1791992l2.6580811,0.52771  c0.3572388-1.0566406,0.5960693-2.1504517,0.7009888-3.2766724L67.956131,35.59375  c-0.0986328,0.0195313-0.1962891,0.0292969-0.2939453,0.0292969c-0.7011719,0-1.3271484-0.4946289-1.4697266-1.2084961  c-0.1611328-0.8125,0.3671875-1.6020508,1.1796875-1.7631836l3.9175415-0.777771  c-1.0726318-8.7817993-10.209713-15.6636353-21.2900963-15.6636353c-11.0799561,0-20.217104,6.881958-21.2896137,15.6636963  l3.9170551,0.77771C33.4395332,32.8125,33.9678535,33.6020508,33.8062325,34.4145508z M57.154377,80.0654297H42.8448067v7.9755859  c0.4489136,0.6085815,0.7618408,1.2921143,0.958374,2.0078125h12.3931885  c0.1965332-0.7157593,0.5093384-1.3991089,0.9580078-2.0078125V80.0654297z M69.7332916,80.0654297H60.154377v8.5068359  c0,0.3701172-0.1367188,0.7285156-0.3847656,1.0039063c-0.3662109,0.40625-0.8027344,1.0917969-0.8027344,2.0478516v0.8457031  c0,0.8271484,0.6728516,1.5,1.5,1.5h6.5410118c0.8271484,0,1.5-0.6728516,1.5-1.5v-0.8457031  c0-0.5478516-0.1494141-1.0869141-0.4306641-1.5566406c-0.8720703-1.4511719-0.9384766-3.1484375-0.1777344-4.5400391  c0.4960938-0.9072266,0.8916016-1.8701172,1.1777344-2.8613281C69.3271637,81.8005371,69.535965,80.9331665,69.7332916,80.0654297z   M75.3985138,84.2988281c0-1.4486694-0.1456909-2.8636475-0.4182739-4.2333984h-2.1621094  c-0.2438965,1.1456299-0.5284424,2.2897339-0.8580933,3.4316406c-0.3466797,1.2021484-0.8271484,2.3691406-1.4277344,3.46875  c-0.2441406,0.4472656-0.2001953,1.0292969,0.1171875,1.5576172c0.2865601,0.4784546,0.5020752,0.9923096,0.6465454,1.5253906  h0.602478c1.9296875,0,3.5-1.5703125,3.5-3.5V84.2988281z M75.1073761,42.1539307l-2.677002-0.5314941  c-3.5463257,6.9066162-11.5275841,11.855957-20.9312706,12.3352661v23.1077271h24.7089806  c0.2089844,0,0.3339844-0.1181641,0.390625-0.1884766c0.0556641-0.0703125,0.1435547-0.21875,0.0966797-0.4228516L75.12117,69.53125  c-0.8398438-3.6943359-2.0693359-7.3095703-3.6542969-10.7441406l-3.1103516-6.7431641  c-0.28125-0.6103516-0.1220703-1.3330078,0.3886719-1.769043C71.4517975,47.9661865,73.5980988,45.1929932,75.1073761,42.1539307z   M77.5261993,33.6937256l-3.1503296,0.6254883c-0.0639038,1.5408936-0.3289795,3.0394287-0.7815552,4.4759521l2.7091064,0.5379028  C76.9395905,37.5106201,77.3474884,35.6181641,77.5261993,33.6937256z M77.5959015,30.621582  c-0.196228-5.1442261-2.0166626-10.0361938-5.335083-14.1938477C72.043045,16.1542969,71.9268341,15.8125,71.93367,15.4619141  l0.1806641-9.0205078c0.0039063-0.1694336-0.0839844-0.2719727-0.1582031-0.328125  C71.8809357,6.0561523,71.7578888,6,71.5957794,6.0493164l-8.5126915,2.5869141  c-0.3476563,0.1049805-0.7197266,0.0810547-1.0488281-0.065918c-3.7675781-1.6855469-7.8164063-2.5400391-12.0351563-2.5400391  s-8.2675781,0.8544922-12.034668,2.5400391c-0.3300781,0.1479492-0.7021484,0.171875-1.0488281,0.065918l-8.5126972-2.5869141  c-0.043457-0.0131836-0.0839844-0.0185547-0.121582-0.0185547c-0.1025391,0-0.1831055,0.0415039-0.2373047,0.0825195  c-0.0615234,0.0463867-0.1635742,0.1508789-0.1606445,0.3300781l0.1816406,9.0185547  c0.0073242,0.3505859-0.1083984,0.6918945-0.3271484,0.9658203c-3.3183594,4.1576538-5.1384888,9.0494995-5.3346558,14.1937256  l3.3607788,0.6672974c1.3807373-10.1589355,11.7202168-18.0787964,24.2355976-18.0787964  s22.8552818,7.9198608,24.2360802,18.0787354L77.5959015,30.621582z M46.29842,36.1413574  c-0.2755127-0.3725586-0.3186035-0.8684692-0.1126099-1.2828979c0.2084351-0.4156494,0.6325073-0.6767578,1.097229-0.6767578  h5.4334106c0.4647827,0,0.8887939,0.2611084,1.097229,0.6767578c0.2059937,0.4144287,0.1629028,0.9103394-0.1126099,1.2828979  l-2.1335449,2.8635254c0.0805664,0.4140625,0.2478027,0.8983154,0.6044312,1.2792969  c0.4990234,0.5332031,1.3505859,0.7885742,2.4541016,0.7788086c0.0078125,0,0.0146484,0,0.0214844,0  c0.8193359,0,1.4882813,0.6577148,1.5,1.4785156c0.0117188,0.8286133-0.6503906,1.5092773-1.4785156,1.5214844  c-0.046875,0.0004883-0.0947266,0.0009766-0.1416016,0.0009766c-0.02771,0-0.0510864-0.0060425-0.0786133-0.0062866  l-0.6157227,2.3182983c-0.1201172,0.8476563-0.59375,1.5976563-1.3115234,2.0688477l-0.1025391,0.0673828  c-0.5878906,0.3857422-1.2700195,0.5898438-1.972168,0.5898438h-0.894043c-0.7021484,0-1.3837891-0.2041016-1.9711914-0.5893555  l-0.1049805-0.0693359c-0.7143555-0.46875-1.1889648-1.2182617-1.3100586-2.0668945l-0.6158447-2.3188477  c-0.027832,0.0002441-0.0514526,0.0063477-0.0794678,0.0063477c-0.046875,0-0.09375-0.0004883-0.1411133-0.0009766  c-0.828125-0.012207-1.4902344-0.6928711-1.4785156-1.5214844c0.0117188-0.828125,0.7075195-1.4941406,1.5214844-1.4785156  c1.1381836,0.0131836,1.96875-0.25,2.4667969-0.7919922c0.3487549-0.3796997,0.5123901-0.8578491,0.59198-1.2662354  L46.29842,36.1413574z M49.9995308,42.3428955c-0.5653076,0.5996704-1.260498,1.036438-2.0700073,1.3222656l0.5769043,2.1722412  c0.015625,0.0585938,0.0268555,0.1181641,0.0332031,0.1782227c0.019043,0.1743164,0.1123047,0.3286133,0.2563477,0.4228516  l0.1049805,0.0693359c0.1923828,0.1264648,0.4189453,0.1938477,0.6518555,0.1938477h0.894043  c0.2329102,0,0.4594727-0.0673828,0.6547852-0.1958008l0.1015625-0.0668945  c0.1445313-0.0947266,0.2373047-0.2480469,0.2558594-0.4208984c0.0068359-0.0610352,0.0175781-0.121582,0.0332031-0.1806641  l0.5769043-2.1723022C51.2598457,43.3792725,50.5648384,42.9425049,49.9995308,42.3428955z"/><text x="0" y="115" fill="#000000" font-size="5px" font-weight="bold" font-family="'Helvetica Neue', Helvetica, Arial-Unicode, Arial, Sans-serif">Created by Llisole</text><text x="0" y="120" fill="#000000" font-size="5px" font-weight="bold" font-family="'Helvetica Neue', Helvetica, Arial-Unicode, Arial, Sans-serif">from the Noun Project</text></svg>