<svg xmlns="http://www.w3.org/2000/svg" xmlns:xlink="http://www.w3.org/1999/xlink" version="1.1" x="0px" y="0px" viewBox="0 0 100 125" style="enable-background:new 0 0 100 100;" xml:space="preserve"><path d="M30.6831684,40.5490036c0,1.3193359-1.0697632,2.3891602-2.3897095,2.3891602  c-1.3193359,0-2.3897705-1.0698242-2.3897705-2.3891602c0-1.3199463,1.0704346-2.3897095,2.3897705-2.3897095  C29.6134052,38.1592941,30.6831684,39.2290573,30.6831684,40.5490036z M45.8307533,38.1592941  c-1.3193359,0-2.3891602,1.0697632-2.3891602,2.3897095c0,1.3193359,1.0698242,2.3891602,2.3891602,2.3891602  c1.3199463,0,2.3897095-1.0698242,2.3897095-2.3891602C48.2204628,39.2290573,47.1506996,38.1592941,45.8307533,38.1592941z   M68.0875854,43.3723679l-5.4659386,1.085144c0.0663452,0.5534058,0.1094971,1.1087646,0.1094971,1.6668091  c0,1.1375732-0.145752,2.2498779-0.4100952,3.3324585l5.7665367,1.1450806  c0.8125,0.1611328,1.3408203,0.9506836,1.1796875,1.7631836c-0.1425781,0.7138672-0.7685547,1.2080078-1.4697266,1.2080078  c-0.0976563,0-0.1953125-0.0087891-0.2939453-0.0283203l-6.2014122-1.2313843  c-1.3895874,2.9249878-3.7329102,5.5228271-6.7583618,7.5927124c2.2909546,2.1062012,4.0036621,4.8293457,4.8953247,7.9179688  c1.0263672,3.5576172,1.6513672,7.1777344,1.8583984,10.7587891c0.0478516,0.8271484-0.5830078,1.5361328-1.4101563,1.5839844  c-0.8466797,0.0546875-1.5371094-0.5849609-1.5839844-1.4101563c-0.0016479-0.0288086-0.0057983-0.0578003-0.0075073-0.0866089  c-0.1994019-3.3311768-0.78302-6.6998901-1.739563-10.0139771c-0.8231201-2.8527222-2.5003052-5.3192139-4.7377319-7.1259766  c-4.1779175,2.1633911-9.2664185,3.4394531-14.7564087,3.4394531s-10.5785542-1.276062-14.7565327-3.4394531  c-2.2374878,1.8067627-3.914856,4.2733154-4.7385864,7.1259766c-0.9551392,3.3102417-1.5386963,6.678894-1.7385855,10.0139771  c-0.001709,0.0288086-0.0058594,0.0578003-0.0075073,0.0866089c-0.0463867,0.7978516-0.7075195,1.4130859-1.4960938,1.4130859  c-0.0292969,0-0.0585938-0.0009766-0.0883789-0.0029297c-0.8271484-0.0478516-1.4584961-0.7568359-1.4106445-1.5839844  c0.2080078-3.5859375,0.8334961-7.2050781,1.8588867-10.7587891c0.8921509-3.0889893,2.6049185-5.8118286,4.89569-7.9178467  c-3.0255737-2.0698853-5.3690176-4.6678467-6.758666-7.5928345l-6.2014775,1.2313843  c-0.0986328,0.0195313-0.1967773,0.0283203-0.293457,0.0283203c-0.7011719,0-1.328125-0.4941406-1.4697266-1.2080078  c-0.1616211-0.8125,0.3666992-1.6020508,1.1791992-1.7631836l5.766541-1.1450195  c-0.2643433-1.0825806-0.4100952-2.1949463-0.4100952-3.3325195c0-0.5579224,0.043335-1.1133423,0.1098022-1.6668091  l-5.466248-1.085144c-0.8125-0.1611328-1.3408203-0.9506836-1.1791992-1.7631836  c0.1611328-0.8125,0.9521484-1.3398438,1.7631836-1.1791992l5.5543828,1.1026611  c0.1209717-0.3556519,0.2431641-0.7111206,0.392395-1.0621338c0.2050781-1.6137695,0.6508789-3.21875,1.3266602-4.7753906  c0.2412109-0.5551758,0.3583984-1.0839844,0.3486328-1.5727539l-0.2231445-11.1123066  c-0.0200195-0.9956055,0.4418945-1.9482422,1.2358398-2.5493164c0.7944326-0.6000977,1.8374014-0.7851563,2.7890615-0.4970703  l10.8833008,3.3076172c5.2656269-1.5371094,11.0039082-1.5375977,16.2695332-0.0004883l10.8828125-3.3071289  c0.9521484-0.2885742,1.9970703-0.1044922,2.7900391,0.4975586c0.7939453,0.6010742,1.2548828,1.5541992,1.2353516,2.5493164  l-0.2226563,11.1108418c-0.0107422,0.4892578,0.1064453,1.0180664,0.3476563,1.5732422  c0.6748047,1.5537109,1.1210938,3.159668,1.3271484,4.7753906c0.149353,0.3510742,0.2716064,0.7067871,0.3926392,1.062561  l5.5536461-1.1026001c0.8056641-0.1611328,1.6005859,0.3652344,1.7636719,1.1791992  C69.4284058,42.4216843,68.9000854,43.211235,68.0875854,43.3723679z M59.731144,46.124321  c0-0.3612061-0.022644-0.7216797-0.0582275-1.0813599l-4.2786865,0.8494263  c-0.0986328,0.0195313-0.1962891,0.0292969-0.2939453,0.0292969c-0.7011719,0-1.3271484-0.4946289-1.4697266-1.2084961  c-0.1611328-0.8125,0.3671875-1.6020508,1.1796875-1.7631836l4.1625366-0.826416  c-0.0818481-0.21698-0.1551514-0.4351807-0.2504272-0.6501465c-0.0615234-0.1391602-0.1015625-0.2866211-0.1181641-0.4379883  c-0.1591797-1.3969727-0.5371094-2.7915039-1.1259766-4.1459961c-0.4140625-0.9541016-0.6142578-1.9057617-0.5957031-2.8291016  l0.2226563-11.1108418c0.0009766-0.0180664,0.0019531-0.0605469-0.0458984-0.0966797  c-0.046875-0.0341797-0.0869141-0.0234375-0.1074219-0.019043l-11.3164063,3.4389648  c-0.2866211,0.0874023-0.5927734,0.0864258-0.8793945-0.0019531c-4.9638672-1.5361328-10.4243164-1.5366211-15.3872089,0.0004883  c-0.2871094,0.0878906-0.5932617,0.0898438-0.8798828,0.0019531L17.17206,22.8337917  c-0.0078125-0.0024414-0.0209961-0.0063477-0.0371094-0.0063477c-0.019043,0-0.0429688,0.0058594-0.0693359,0.0253906  c-0.0483398,0.0366211-0.0473633,0.0791016-0.0473633,0.097168l0.2231445,11.11133  c0.019043,0.9233398-0.1816406,1.8754883-0.5961914,2.8291016c-0.5883789,1.355957-0.9667959,2.7504883-1.1240225,4.1445313  c-0.0170898,0.1513672-0.0576172,0.2993164-0.1191406,0.4384766c-0.0952148,0.2150269-0.168457,0.4332275-0.2503052,0.6502075  l4.1624136,0.826355c0.8125,0.1611328,1.3408203,0.9506836,1.1791992,1.7631836  c-0.1416016,0.7138672-0.7685547,1.2084961-1.4697266,1.2084961c-0.0966797,0-0.1948242-0.0097656-0.293457-0.0292969  l-4.2791128-0.8494873c-0.0357056,0.3598022-0.0582886,0.7202759-0.0582886,1.0814209  c0,0.9379272,0.1239014,1.8554688,0.3485718,2.7490845l3.9888296-0.7920532  c0.8164063-0.159668,1.6020508,0.3666992,1.7631836,1.1791992c0.1616211,0.8125-0.3666992,1.6020508-1.1791992,1.7636719  l-3.46173,0.6873779c3.23944,5.9875488,11.5228262,10.2579346,21.2097778,10.2579346  c9.6865845,0,17.9698486-4.2703857,21.2092896-10.2579956l-3.4612427-0.6873169  c-0.8125-0.1616211-1.3408203-0.9511719-1.1796875-1.7636719c0.1630859-0.8129883,0.9580078-1.3354492,1.7636719-1.1791992  l3.9883423,0.7919922C59.6072426,47.9797897,59.731144,47.0621872,59.731144,46.124321z M41.7877846,51.5408249  c-1.1821289,0.0253906-2.0151367-0.2548828-2.5307617-0.8056641c-0.361145-0.3858643-0.5335083-0.8726807-0.6188354-1.2941895  l2.2039185-2.9579468c0.2813721-0.3804932,0.3253784-0.8869019,0.1149902-1.3101807  c-0.2128906-0.4244995-0.6459351-0.6911621-1.1205444-0.6911621h-5.5489502c-0.4746094,0-0.9076538,0.2666626-1.1205444,0.6911621  c-0.2103882,0.4232788-0.1663208,0.9296875,0.1149902,1.3101807l2.2037354,2.9577026  c-0.0852661,0.4216309-0.2572021,0.9083862-0.6184082,1.2944336c-0.5161133,0.5507813-1.3540039,0.828125-2.5307617,0.8056641  c-0.8266621,0.0048828-1.508791,0.6494141-1.5214863,1.4785156c-0.0117188,0.828125,0.6499023,1.5097656,1.4785175,1.5214844  c0.0483398,0.0009766,0.0966797,0.0009766,0.1450195,0.0009766c1.9793091,0,3.5325928-0.5960693,4.623291-1.7666016  c1.0906982,1.1705322,2.6439819,1.7666016,4.6237793,1.7666016c0.0478516,0,0.0966797,0,0.1450195-0.0009766  c0.8286133-0.0117188,1.4902344-0.6933594,1.4785156-1.5214844C43.2970619,52.190239,42.6251869,51.5418015,41.7877846,51.5408249z   M93.1813354,34.8132858c-1.7900391-2.0585938-4.6699219-3.2880878-7.703125-3.2880878  c-4.015625,0-8.1806641,2.8515644-9.6884766,6.6328144c-0.3066406,0.7695313,0.0683594,1.6420898,0.8378906,1.9487305  c0.7675781,0.3061523,1.6425781-0.0673828,1.9492188-0.8374023c1.0605469-2.6601563,4.0917969-4.7441406,6.9013672-4.7441406  c2.1767578,0,4.2099609,0.84375,5.4384766,2.2568359c1.0097656,1.1616211,1.421875,2.6464844,1.1904297,4.2949219  c-0.2255859,1.6069336-0.9599609,3.5893555-4.6992188,6.1103516c-3.0556641,2.0605469-4.875,5.5341797-4.8671875,9.2890625  v0.4667969c0,0.828125,0.671875,1.5,1.5,1.5s1.5-0.671875,1.5-1.5v-0.4697266  c-0.0058594-2.7568359,1.3193359-5.2978516,3.5449219-6.7988281c3.7011719-2.4951172,5.5488281-5.0185547,5.9921875-8.1811523  C95.4332886,38.9597702,94.7780151,36.6501999,93.1813354,34.8132858z M84.5219116,61.221489H83.546875  c-1.437439,0-2.6073608,1.1695557-2.6073608,2.6073608v0.5360718c0,1.4378052,1.1699219,2.6073608,2.6073608,2.6073608h0.9750366  c1.4375,0,2.6074219-1.1695557,2.6074219-2.6073608v-0.5360718C87.1293335,62.3910446,85.9594116,61.221489,84.5219116,61.221489z"/><text x="0" y="115" fill="#000000" font-size="5px" font-weight="bold" font-family="'Helvetica Neue', Helvetica, Arial-Unicode, Arial, Sans-serif">Created by Llisole</text><text x="0" y="120" fill="#000000" font-size="5px" font-weight="bold" font-family="'Helvetica Neue', Helvetica, Arial-Unicode, Arial, Sans-serif">from the Noun Project</text></svg>