<svg xmlns="http://www.w3.org/2000/svg" xmlns:xlink="http://www.w3.org/1999/xlink" version="1.1" x="0px" y="0px" viewBox="0 0 100 125" style="enable-background:new 0 0 100 100;" xml:space="preserve"><path d="M81.0254669,50.6011848l-5.7664795-1.1448364c0.2643433-1.0826416,0.4100342-2.1950684,0.4100342-3.3327026  c0-0.5578613-0.0432129-1.1130981-0.1094971-1.6663208l5.4659424-1.085144  c0.8125-0.1611328,1.3408203-0.9506836,1.1796875-1.7631836c-0.1630859-0.8139648-0.9570313-1.3398438-1.7636719-1.1791992  l-5.5536499,1.1026001c-0.1210327-0.3557739-0.2432861-0.7114868-0.3926392-1.062561  c-0.2060547-1.6157227-0.6523438-3.2216797-1.328125-4.7773438c-0.2402344-0.5517578-0.3574219-1.081543-0.3476563-1.5717773  l0.2236328-11.1103516c0.0195313-0.9951172-0.4414063-1.9482422-1.2353516-2.5493164  c-0.7939453-0.6015625-1.8388672-0.7866211-2.7900391-0.4975586l-10.8828087,3.3071289  c-5.2636719-1.5371094-11.0058594-1.5371094-16.2695313,0l-10.883791-3.3071289  c-0.9511719-0.2875977-1.9951172-0.1035156-2.7885742,0.4970703c-0.7939453,0.6005859-1.2558594,1.5537109-1.2358398,2.5493164  l0.2231445,11.1108398c0.0097656,0.4902344-0.1074219,1.0195313-0.3486328,1.5737305  c-0.675293,1.5551758-1.121582,3.1606445-1.3266602,4.7753906c-0.149353,0.3510742-0.2716675,0.7067871-0.3927002,1.0626221  l-5.5540771-1.1026611c-0.8125-0.159668-1.6020508,0.3671875-1.7631836,1.1791992  c-0.1616211,0.8125,0.3666992,1.6020508,1.1791992,1.7631836l5.4660645,1.0852051  c-0.0663452,0.5532837-0.1096191,1.1084595-0.1096191,1.6662598c0,1.1376343,0.145752,2.250061,0.4100952,3.3327026  l-5.7665405,1.1448364c-0.8125,0.1611328-1.3408203,0.9506836-1.1791992,1.7631836  c0.1416016,0.7138672,0.7685547,1.2080078,1.4697266,1.2080078c0.0966797,0,0.1948242-0.0087891,0.293457-0.0283203  l6.2012939-1.2313843c1.3895264,2.9252319,3.7329102,5.5233154,6.7583027,7.5933228  c-2.2906513,2.1062012-4.0032978,4.8293495-4.8951435,7.9183388c-1.0258789,3.5546875-1.6513672,7.1748047-1.859375,10.7587891  c-0.0478516,0.8271484,0.5834961,1.5361328,1.4106445,1.5839844c0.0297852,0.0019531,0.059082,0.0029297,0.0883789,0.0029297  c0.7885742,0,1.449707-0.6152344,1.4960938-1.4130859c0.001709-0.0289917,0.0057983-0.0582275,0.0075684-0.0872192  c0.1998291-3.3330078,0.7834473-6.701355,1.7390137-10.0133667c0.8236694-2.8530884,2.5006733-5.3196449,4.7376728-7.1264687  c4.1781616,2.1636963,9.2670898,3.4399452,14.7574463,3.4399452c5.4902344,0,10.5789795-1.2761269,14.7569542-3.4397621  c2.2366943,1.8068237,3.913208,4.2733192,4.7362061,7.1262856c0.956543,3.3129272,1.5401611,6.6812744,1.7404785,10.0133667  c0.00177,0.0289917,0.0058594,0.0582275,0.0075684,0.0872192c0.046875,0.8251953,0.7363281,1.4648438,1.5839844,1.4101563  c0.8271484-0.0478516,1.4580078-0.7568359,1.4101563-1.5839844c-0.2070313-3.5830078-0.8330078-7.2021484-1.859375-10.7587891  c-0.8910522-3.0889893-2.6032104-5.8120766-4.8938599-7.9183388c3.0253296-2.0700684,5.3685303-4.6681519,6.7580566-7.5933228  l6.2012329,1.2313843c0.0986328,0.0195313,0.1962891,0.0283203,0.2939453,0.0283203  c0.7011719,0,1.3271484-0.4941406,1.4697266-1.2080078C82.3662872,51.5518684,81.8379669,50.7623177,81.0254669,50.6011848z   M28.339922,41.4737434c0.0615234-0.1396484,0.1020508-0.2875977,0.1191406-0.4389648  c0.1572266-1.3955078,0.5356445-2.7900391,1.1240234-4.1445313c0.4140625-0.9521484,0.6147461-1.9038086,0.5961914-2.8295898  l-0.2231445-11.1108398c0-0.0180664-0.0009766-0.0605469,0.0473633-0.097168  c0.0258789-0.0195313,0.0498047-0.0253906,0.0688477-0.0253906c0.0161133,0,0.0292969,0.0039063,0.0371094,0.0063477  l11.3173847,3.4389648c0.2866211,0.0874023,0.59375,0.0864258,0.8798828-0.0019531  c4.9619141-1.5366211,10.4267578-1.5356445,15.3867188,0c0.2871094,0.0878906,0.5917969,0.090332,0.8798828,0.0019531  l11.3164024-3.4389648c0.0195313-0.0043945,0.0615234-0.0151367,0.1074219,0.019043  c0.0478516,0.0361328,0.046875,0.0786133,0.0458984,0.0966797l-0.2236328,11.1123047  c-0.0175781,0.9262695,0.1835938,1.878418,0.5966797,2.8276367c0.5888672,1.3544922,0.9677734,2.7495117,1.1259766,4.1459961  c0.0166016,0.1513672,0.0566406,0.2988281,0.1181641,0.4379883c0.0952759,0.2149658,0.1685791,0.4331665,0.2504272,0.6501465  l-2.3383179,0.4642334c0.1598511-0.6550903,0.2539063-1.3355713,0.2539063-2.0391846  c0-4.7519531-3.8662109-8.6176758-8.6181602-8.6176758c-3.6923218,0-6.8400269,2.3383179-8.0643921,5.6083984h-6.288208  c-1.2243652-3.2700806-4.3720703-5.6083984-8.0643921-5.6083984c-4.7519531,0-8.6176777,3.8657227-8.6176777,8.6176758  c0,0.7036133,0.0940552,1.3840942,0.2539063,2.0391846l-2.3377075-0.4641113  C28.1714649,41.9066658,28.2447071,41.6886482,28.339922,41.4737434z M57.9336739,42.6114388l5.3378906-5.3378906  c0.390625-0.390625,1.0234337-0.390625,1.4140587,0s0.390625,1.0234375,0,1.4140625l-5.3378868,5.3378906  c-0.1953125,0.1953125-0.4511719,0.2929688-0.7070313,0.2929688s-0.5117188-0.0976563-0.7070313-0.2929688  C57.5430489,43.6348763,57.5430489,43.0020638,57.9336739,42.6114388z M57.2227364,40.1802864  c-0.2558594,0-0.5117188-0.0976563-0.7070313-0.2929688c-0.390625-0.390625-0.390625-1.0239258,0-1.4140625l2.7705078-2.7700195  c0.390625-0.390625,1.0234375-0.390625,1.4140625,0s0.390625,1.0239258,0,1.4140625l-2.7705078,2.7700195  C57.7344551,40.0826302,57.4785957,40.1802864,57.2227364,40.1802864z M35.5161934,42.6114388l5.3378906-5.3378906  c0.390625-0.390625,1.0234375-0.390625,1.4140625,0s0.390625,1.0234375,0,1.4140625l-5.3378906,5.3378906  c-0.1953125,0.1953125-0.4511719,0.2929688-0.7070313,0.2929688s-0.5117188-0.0976563-0.7070313-0.2929688  C35.1255684,43.6348763,35.1255684,43.0020638,35.5161934,42.6114388z M34.8052559,40.1802864  c-0.2558594,0-0.5117188-0.0976563-0.7070313-0.2929688c-0.390625-0.390625-0.390625-1.0234375,0-1.4140625l2.7700195-2.7700195  c0.390625-0.390625,1.0234375-0.390625,1.4140625,0s0.390625,1.0234375,0,1.4140625l-2.7700195,2.7700195  C35.3169746,40.0826302,35.0611153,40.1802864,34.8052559,40.1802864z M72.3204498,48.8729744l-3.9883423-0.7918091  c-0.8046875-0.159668-1.6005859,0.3662109-1.7636719,1.1791992c-0.1611328,0.8125,0.3671875,1.6020508,1.1796875,1.7631836  l3.4616089,0.6873779c-3.2390747,5.9883423-11.5223961,10.2589111-21.2096519,10.2589111  s-17.9708862-4.2705688-21.2100849-10.2589111l3.4615498-0.6873779c0.8125-0.1611328,1.3408203-0.9506836,1.1791992-1.7631836  c-0.1606445-0.8120117-0.9477539-1.3378906-1.7631855-1.1791992l-3.9883423,0.7918091  c-0.2246704-0.8936768-0.3485718-1.8113403-0.3485718-2.7493286c0-0.361084,0.022583-0.7213745,0.0582275-1.0808716  l4.2786865,0.8494263c0.0986328,0.0195313,0.1967773,0.0292969,0.293457,0.0292969  c0.0317993,0,0.0602436-0.0140381,0.0917377-0.0160522c1.5802002,1.9835815,4.0109863,3.2606812,6.7383423,3.2606812  c4.7519531,0,8.6171875-3.8657227,8.6171875-8.6176758c0-0.0031128-0.0004883-0.0061646-0.0004883-0.0092773h5.1835938  c0,0.0031128-0.0004883,0.0061646-0.0004883,0.0092773c0,4.7519531,3.8652344,8.6176758,8.6171875,8.6176758  c2.727356,0,5.1582603-1.2770996,6.7385826-3.2606201c0.0313721,0.0020142,0.0597534,0.0159912,0.0914917,0.0159912  c0.0976563,0,0.1953125-0.0097656,0.2939453-0.0292969l4.2787476-0.8494873  c0.0355835,0.3595581,0.0581665,0.7199097,0.0581665,1.0809326C72.6690216,47.0616341,72.5451202,47.9792976,72.3204498,48.8729744z   M56.2471504,53.0191536c0.0117188,0.8286133-0.6503906,1.5092773-1.4785156,1.5209961  c-0.0478516,0.0009766-0.0966797,0.0009766-0.1445313,0.0009766c-1.9793701,0-3.5328369-0.5958862-4.6245117-1.7664185  c-1.0916748,1.1705322-2.644165,1.7664185-4.6235352,1.7664185c-0.0478516,0-0.0957031,0-0.1445313-0.0009766  c-0.828125-0.0117188-1.4902344-0.6923828-1.4785156-1.5209961c0.0117188-0.8276367,0.7197266-1.4663086,1.5214844-1.4785156  c1.1796875,0.0146484,2.0283203-0.2587891,2.5429688-0.8188477c0.3529053-0.3840942,0.5219116-0.8651123,0.6062622-1.2811279  l-2.2039795-2.9580078c-0.2813721-0.3804321-0.3253784-0.8868408-0.1149902-1.3101196  c0.2128296-0.4244995,0.645874-0.6911621,1.1205444-0.6911621h5.5488892c0.4746704,0,0.9077148,0.2666626,1.1205444,0.6911621  c0.2104492,0.4232788,0.1663818,0.9296875-0.1149902,1.3101196l-2.2041016,2.958313  c0.0853271,0.4213867,0.2576294,0.907959,0.6187744,1.2935181c0.515625,0.5512695,1.3427734,0.8105469,2.53125,0.8061523  C55.5733223,51.556263,56.2354317,52.1910286,56.2471504,53.0191536z"/><text x="0" y="115" fill="#000000" font-size="5px" font-weight="bold" font-family="'Helvetica Neue', Helvetica, Arial-Unicode, Arial, Sans-serif">Created by Llisole</text><text x="0" y="120" fill="#000000" font-size="5px" font-weight="bold" font-family="'Helvetica Neue', Helvetica, Arial-Unicode, Arial, Sans-serif">from the Noun Project</text></svg>